<?xml version="1.0" encoding="utf-8"?>
<!-- Generator: Adobe Illustrator 24.0.0, SVG Export Plug-In . SVG Version: 6.00 Build 0)  -->
<svg version="1.1" xmlns="http://www.w3.org/2000/svg" xmlns:xlink="http://www.w3.org/1999/xlink" x="0px" y="0px"
	 viewBox="0 0 15.8 20" style="enable-background:new 0 0 15.8 20;" xml:space="preserve">
<style type="text/css">
	.st0{display:none;}
	.st1{display:inline;}
	.st2{fill:#8EC4DE;}
</style>
<g id="Layer_1" class="st0">
	<g class="st1">
		<g>
			<path class="st2" d="M11.9,10l0.3,0.8c0.2-0.1,0.3-0.2,0.4-0.3c0.2-0.2,0.2-0.6,0-1s-0.4-0.6-0.7-0.6c-0.1,0-0.3,0-0.6,0.1
				c0,0-0.2,0.1-0.5,0.2l-0.4,0.2C10.2,9.5,10,9.5,10,9.5C9.8,9.6,9.7,9.8,9.6,9.9c-0.1,0.2-0.1,0.6,0.1,0.9
				c0.1,0.3,0.3,0.5,0.6,0.6c0.1,0,0.3,0,0.4,0c0.1,0,0.2-0.1,0.4-0.2l0.2-0.1c0.2-0.1,0.3-0.1,0.4-0.2c0.1-0.1,0.1-0.2,0.2-0.3
				c0-0.1,0-0.3-0.1-0.4c-0.1-0.2-0.3-0.3-0.4-0.3l0.5-0.2c0-0.1,0.1-0.1,0.1-0.1c0.1,0,0.1,0,0.2,0.1c0,0.1,0,0.1,0,0.1l-0.1,0.1
				C12.1,9.9,12,9.9,11.9,10z M11,10.4l-0.5,0.2c-0.2,0.1-0.3,0.1-0.4,0c0-0.1,0-0.1,0.1-0.2c0,0,0.1-0.1,0.2-0.1l0.5-0.2
				c0.2-0.1,0.3-0.1,0.3,0C11.2,10.2,11.1,10.3,11,10.4z"/>
			<path class="st2" d="M7.5,12.9C7.5,12.9,7.4,12.8,7.5,12.9L7.5,12.9c0.2-0.3,0.2-0.8,0-1.1s-0.4-0.4-0.7-0.5
				c-0.4-0.1-0.7,0-1,0.2c-0.2,0.1-0.3,0.3-0.3,0.6s0.1,0.5,0.2,0.7L5.8,13c-0.2,0.2-0.2,0.5-0.2,0.8c0.1,0.3,0.3,0.5,0.5,0.7
				c0.2,0.1,0.4,0.1,0.6,0.1c0.1,0,0.1,0,0.1,0c0.3,0,0.5-0.1,0.7-0.3c0.1-0.1,0.2-0.3,0.3-0.4c0.1-0.3,0-0.6-0.2-0.9
				C7.6,13,7.5,12.9,7.5,12.9z M6.1,12.3c0-0.2,0.1-0.3,0.2-0.3s0.1,0,0.2,0s0.3,0.1,0.4,0.1C7,12.2,7,12.3,7,12.4s-0.1,0.2-0.2,0.2
				c0,0-0.1,0-0.2,0H6.5H6.4c-0.1,0-0.1,0-0.1,0C6.1,12.6,6.1,12.5,6.1,12.3z M7.2,13.8c0,0.1-0.1,0.1-0.2,0.2c-0.1,0-0.1,0-0.2,0
				H6.7H6.6c-0.1,0-0.1,0-0.2,0s-0.2-0.1-0.2-0.2s0-0.2,0.1-0.3s0.2-0.2,0.4-0.2l0,0c0.2,0,0.3,0.1,0.4,0.2
				C7.2,13.6,7.2,13.7,7.2,13.8z"/>
			<path class="st2" d="M3.4,8.4C4,8.2,4.6,8.1,5.2,8.2c0.5,0,1,0.1,1.5,0.3C7.3,7.7,8.1,7.2,9,6.8c0.4-0.2,0.8-0.3,1.2-0.3
				c0.5-0.1,1-0.1,1.5,0c0.6,0.1,1.2,0.3,1.8,0.6C14,7.4,14.4,7.7,14.8,8V3.2c0-0.5-0.4-1-1-1H1.9c-0.5,0-1,0.4-1,1v6.6
				C1.2,9.4,1.6,9.1,2,8.9C2.5,8.7,2.9,8.5,3.4,8.4z M10.6,3.6c0-0.3,0.2-0.5,0.5-0.5h2.3c0.3,0,0.5,0.2,0.5,0.5v2.3
				c0,0.3-0.2,0.5-0.5,0.5h-2.3c-0.3,0-0.5-0.2-0.5-0.5V3.6z M6.3,3.6c0-0.3,0.2-0.5,0.5-0.5H9c0.3,0,0.5,0.2,0.5,0.5v2.3
				c0,0.3-0.2,0.5-0.5,0.5H6.7c-0.3,0-0.5-0.2-0.5-0.5L6.3,3.6L6.3,3.6z M1.9,5.9V3.6c0-0.3,0.2-0.5,0.5-0.5h2.3
				c0.3,0,0.5,0.2,0.5,0.5v2.3c0,0.3-0.2,0.5-0.5,0.5H2.4C2.1,6.3,1.9,6.1,1.9,5.9z"/>
			<path class="st2" d="M9.6,12.7c-0.1-0.4-0.2-0.9-0.4-1.3c-0.3-0.5-0.6-0.9-1-1.3C7.8,9.8,7.4,9.5,6.9,9.3C6.4,9,5.8,8.9,5.2,8.9
				c-0.5,0-1.1,0-1.6,0.2c-0.4,0-0.8,0.2-1.2,0.4c-0.4,0.3-0.7,0.6-1,0.9c-0.4,0.5-0.8,1-1,1.6c-0.2,0.5-0.2,1-0.3,1.5
				c0,0.4,0,0.8,0.1,1.2s0.2,0.9,0.5,1.2C1,16.5,1.5,17,2,17.4c0.4,0.4,0.9,0.6,1.5,0.8c0.5,0.1,1,0.2,1.5,0.2c0.2,0,0.5,0,0.8-0.1
				c0.3,0,0.7-0.1,1-0.3c0.5-0.2,1-0.5,1.4-0.9c0.3-0.3,0.6-0.6,0.8-1c0.5-0.7,0.7-1.5,0.7-2.4C9.7,13.4,9.7,13.1,9.6,12.7z
				 M8.2,14.8c-0.4,0.4-0.9,0.6-1.4,0.6s-0.9,0-1.3-0.2C5,14.9,4.6,14.6,4.4,14c-0.2-0.4-0.2-0.8-0.2-1.2c0-0.5,0.2-0.9,0.5-1.3
				c0.4-0.5,0.9-0.8,1.5-0.9c0.5-0.1,1,0,1.5,0.2C8,11,8.3,11.2,8.5,11.5s0.4,0.6,0.4,0.9C9,12.6,9,12.8,9,13.1
				C8.9,13.7,8.6,14.3,8.2,14.8z"/>
			<path class="st2" d="M15.8,11.7c0-0.5-0.2-1.1-0.4-1.6c-0.2-0.6-0.5-1.1-0.9-1.5s-0.8-0.7-1.2-0.9c-0.5-0.3-1-0.4-1.6-0.5
				c-0.4-0.1-0.9-0.1-1.3,0C10,7.3,9.6,7.4,9.3,7.5C8.6,7.8,7.9,8.2,7.4,8.8C7.9,9,8.3,9.3,8.7,9.6l0,0c0-0.1,0.1-0.3,0.1-0.4
				c0.3-0.6,0.8-1,1.4-1.2c0.2-0.1,0.4-0.1,0.7-0.1c0.4,0,0.7,0,1,0.1c0.3,0.1,0.6,0.3,0.9,0.6c0.4,0.4,0.6,0.8,0.7,1.4
				c0.1,0.6-0.1,1.2-0.4,1.7c-0.3,0.4-0.7,0.7-1.1,0.9c-0.4,0.1-0.8,0.2-1.2,0.2c-0.2,0-0.4-0.1-0.5-0.1l0,0
				c0.1,0.4,0.1,0.8,0.1,1.3c0,1-0.3,1.9-0.8,2.7c0.2,0,0.4,0.1,0.5,0.1c0.4,0.1,0.9,0.1,1.3,0c0.4,0,0.8-0.1,1.2-0.3
				c0.5-0.2,0.9-0.4,1.3-0.7c0.5-0.4,0.9-0.9,1.2-1.4c0.2-0.4,0.4-0.8,0.5-1.3C15.8,12.6,15.8,12.1,15.8,11.7z"/>
		</g>
	</g>
</g>
<g id="Layer_2">
	<g transform="translate(0,-288.53332)">
		<path class="st2" d="M9.2,296.9c0-1-0.8-1.8-1.8-1.8s-1.8,0.8-1.8,1.8s0.8,1.8,1.8,1.8S9.2,297.9,9.2,296.9z"/>
		<path class="st2" d="M15.6,295.1v3.6l-4.1-1.8L15.6,295.1z"/>
		<path class="st2" d="M2.5,301.3l1.1-0.9c0.1-0.1,0.2-0.3,0-0.5c-0.1-0.1-0.3-0.2-0.5-0.1l-1.1,0.9c-0.5-0.6-0.8-1.3-1-2.1l2.7-0.6
			c0.2,0,0.3-0.2,0.2-0.4c0-0.2-0.2-0.3-0.4-0.2l0,0l-2.7,0.6c-0.1-0.8-0.1-1.6,0-2.3l1.3,0.3c0.2,0,0.3-0.1,0.4-0.2
			c0-0.2-0.1-0.3-0.2-0.4l-1.3-0.3c0.2-0.8,0.6-1.5,1-2.1l2.2,1.7c0.1,0.1,0.3,0.1,0.5-0.1c0.1-0.1,0.1-0.3-0.1-0.5l-2.2-1.7
			c0.5-0.6,1.1-1.1,1.8-1.4l0.6,1.2c0.1,0.2,0.3,0.2,0.4,0.1c0.2-0.1,0.2-0.3,0.2-0.4l-0.6-1.2c0.7-0.3,1.5-0.5,2.3-0.5v2.8
			c0,0.2,0.1,0.3,0.3,0.3c0.2,0,0.3-0.1,0.3-0.3v-2.8c0.8,0,1.5,0.2,2.3,0.5L9.4,292c-0.1,0.2,0,0.4,0.2,0.4c0.2,0.1,0.4,0,0.4-0.2
			l0.6-1.2c0.7,0.4,1.3,0.9,1.8,1.4l-2.2,1.7c-0.1,0.1-0.2,0.3-0.1,0.5c0.1,0.1,0.3,0.2,0.5,0.1l2.2-1.7c0.5,0.6,0.8,1.4,1,2.1
			l0.6-0.3c-1.1-3.9-5.1-6.1-9-5c-3.9,1.1-6.1,5.1-5,9s5.1,6.1,9,5c2.4-0.7,4.3-2.6,5-5l-0.6-0.3c-0.2,0.8-0.6,1.5-1,2.1l-1.1-0.9
			c-0.1-0.1-0.3-0.1-0.5,0.1c-0.1,0.1-0.1,0.3,0.1,0.5l1.1,0.9c-0.5,0.6-1.1,1.1-1.8,1.4l-1.2-2.5c-0.1-0.2-0.3-0.2-0.4-0.2
			c-0.2,0.1-0.2,0.3-0.2,0.4L10,303c-0.7,0.3-1.5,0.5-2.3,0.5v-1.4c0-0.2-0.1-0.3-0.3-0.3c-0.2,0-0.3,0.1-0.3,0.3v1.4
			c-0.8,0-1.5-0.2-2.3-0.5l1.2-2.5c0.1-0.2,0-0.4-0.2-0.4c-0.2-0.1-0.4,0-0.4,0.2l0,0l-1.2,2.5C3.6,302.4,3,301.9,2.5,301.3
			L2.5,301.3z"/>
		<path class="st2" d="M3.7,303.9L2,307.8h11l-1.7-3.8C8.9,305.2,6.1,305.2,3.7,303.9z"/>
	</g>
</g>
</svg>
